<svg width="174" height="138" viewBox="0 0 174 138" fill="none" xmlns="http://www.w3.org/2000/svg">
<g clip-path="url(#clip0_114_253)">
<path d="M151.529 5.78857H22.4712V132.15H151.529V5.78857Z" fill="url(#paint0_linear_114_253)" stroke="black" stroke-width="0.788316"/>
<path d="M26.6914 0.394043H17.8472V9.23824H26.6914V0.394043Z" fill="#FFC107" stroke="black" stroke-width="0.788316"/>
<path d="M26.6914 127.929H17.8472V136.773H26.6914V127.929Z" fill="#FFC107" stroke="black" stroke-width="0.788316"/>
<path d="M157.694 0.394043H148.85V9.23824H157.694V0.394043Z" fill="#FFC107" stroke="black" stroke-width="0.788316"/>
<path d="M157.694 127.929H148.85V136.773H157.694V127.929Z" fill="#FFC107" stroke="black" stroke-width="0.788316"/>
<path d="M110.714 23.5034H63.2856C51.3791 23.5034 41.7271 33.1555 41.7271 45.0619V92.4906C41.7271 104.397 51.3791 114.049 63.2856 114.049H110.714C122.621 114.049 132.273 104.397 132.273 92.4906V45.0619C132.273 33.1555 122.621 23.5034 110.714 23.5034Z" fill="#272727"/>
<mask id="mask0_114_253" style="mask-type:luminance" maskUnits="userSpaceOnUse" x="67" y="38" width="40" height="61">
<path d="M106.916 38.9023H67.084V98.6501H106.916V38.9023Z" fill="white"/>
</mask>
<g mask="url(#mask0_114_253)">
<path d="M77.042 98.6503C82.5388 98.6503 87 94.1892 87 88.6924V78.7344H77.042C71.5452 78.7344 67.084 83.1956 67.084 88.6924C67.084 94.1892 71.5452 98.6503 77.042 98.6503Z" fill="#0ACF83"/>
<path d="M67.084 68.7763C67.084 63.2795 71.5452 58.8184 77.042 58.8184H87V78.7343H77.042C71.5452 78.7343 67.084 74.2731 67.084 68.7763Z" fill="#A259FF"/>
<path d="M67.084 48.8602C67.084 43.3634 71.5451 38.9023 77.0419 38.9023H86.9999V58.8182H77.0419C71.5451 58.8182 67.084 54.357 67.084 48.8602Z" fill="#F24E1E"/>
<path d="M87 38.9023H96.958C102.455 38.9023 106.916 43.3634 106.916 48.8602C106.916 54.357 102.455 58.8182 96.958 58.8182H87V38.9023Z" fill="#FF7262"/>
<path d="M106.916 68.7763C106.916 74.2731 102.455 78.7343 96.958 78.7343C91.4612 78.7343 87 74.2731 87 68.7763C87 63.2795 91.4612 58.8184 96.958 58.8184C102.455 58.8184 106.916 63.2795 106.916 68.7763Z" fill="#1ABCFE"/>
</g>
<path d="M50.7627 68.1614L36.3679 74.2314C35.3966 74.641 35.4356 76.0305 36.4283 76.3851L43.3208 78.8467L46.9179 85.0599C47.4474 85.9744 48.8251 85.7576 49.0481 84.7247L52.3417 69.4704C52.5391 68.5558 51.6248 67.7978 50.7627 68.1614ZM43.4539 78.8942C43.4536 78.8941 43.4542 78.8942 43.4539 78.8942V78.8942Z" fill="#7969FF"/>
<path d="M43.4539 78.8942C43.4536 78.8941 43.4542 78.8942 43.4539 78.8942ZM43.4539 78.8942L43.5835 78.5314M50.7627 68.1614L36.3679 74.2314C35.3966 74.641 35.4356 76.0305 36.4283 76.3851L43.3208 78.8467L46.9179 85.0599C47.4474 85.9744 48.8251 85.7576 49.0481 84.7247L52.3417 69.4704C52.5391 68.5558 51.6248 67.7978 50.7627 68.1614Z" stroke="black" stroke-width="1.5412"/>
<path d="M125.346 41.2959L127.484 56.7712C127.628 57.8154 128.98 58.1374 129.58 57.2703L133.741 51.2497L140.674 49.3833C141.694 49.1085 141.841 47.7217 140.901 47.2389L127.019 40.1095C126.187 39.682 125.218 40.369 125.346 41.2959Z" fill="#6CD03E"/>
<path d="M133.821 51.1341C133.821 51.1339 133.822 51.1337 133.822 51.1335L133.505 50.9144M125.346 41.2959L127.484 56.7712C127.628 57.8154 128.98 58.1374 129.58 57.2703L133.741 51.2497L140.674 49.3833C141.694 49.1085 141.841 47.7217 140.901 47.2389L127.019 40.1095C126.187 39.682 125.218 40.369 125.346 41.2959Z" stroke="black" stroke-width="1.5412"/>
<path d="M33.6359 83.6104H6.66481C3.26008 83.6104 0.5 86.3704 0.5 89.7752V102.105C0.5 105.509 3.26008 108.27 6.66481 108.27H33.6359C37.0406 108.27 39.8007 105.509 39.8007 102.105V89.7752C39.8007 86.3704 37.0406 83.6104 33.6359 83.6104Z" fill="#7969FF"/>
<path d="M15.0583 92.7168L12.54 98.222L9.8167 92.7168H8.38184L11.9104 99.5397V102.234H13.111V99.5397L16.4639 92.7168H15.0583ZM19.5441 102.41C21.6818 102.41 23.2045 100.799 23.2045 98.5734C23.2045 96.3479 21.6818 94.7374 19.5441 94.7374C17.4065 94.7374 15.8838 96.3479 15.8838 98.5734C15.8838 100.799 17.4065 102.41 19.5441 102.41ZM19.5441 101.253C18.1385 101.253 17.099 100.096 17.099 98.5734C17.099 97.0361 18.1385 95.8648 19.5441 95.8648C20.9497 95.8648 21.9892 97.0361 21.9892 98.5734C21.9892 100.096 20.9497 101.253 19.5441 101.253ZM31.0534 102.234L30.9948 100.77V94.9131H29.8235V98.9834C29.7943 100.272 28.8865 101.209 27.6566 101.209C26.6024 101.209 25.8411 100.418 25.8411 99.3641V94.9131H24.6698V99.4812C24.6698 101.18 25.8411 102.41 27.4809 102.41C28.579 102.41 29.5161 101.897 29.8675 101.077L29.9407 102.234H31.0534Z" fill="black"/>
<path d="M167.336 55.4834H144.603C141.198 55.4834 138.438 58.2435 138.438 61.6482V73.9778C138.438 77.3825 141.198 80.1426 144.603 80.1426H167.336C170.74 80.1426 173.5 77.3825 173.5 73.9778V61.6482C173.5 58.2435 170.74 55.4834 167.336 55.4834Z" fill="#6CD03E"/>
<path d="M147.139 74.1068H148.34V66.4932L151.444 74.0774H152.586L155.543 66.4932V74.1068H156.744V64.5898H154.987L152.03 72.4083L148.955 64.5898H147.139V74.1068ZM165.09 72.0569L163.83 71.5884C163.713 72.5254 162.893 73.155 161.839 73.155C160.609 73.155 159.702 72.218 159.614 70.9002H165.207C165.221 70.7392 165.221 70.5488 165.221 70.3878C165.221 68.1916 163.83 66.6103 161.839 66.6103C159.819 66.6103 158.325 68.221 158.325 70.4464C158.325 72.6719 159.848 74.2824 161.898 74.2824C163.42 74.2824 164.797 73.3453 165.09 72.0569ZM159.599 69.7729C159.687 68.5722 160.653 67.7085 161.825 67.7085C162.996 67.7085 163.962 68.5722 164.021 69.7729H159.599Z" fill="black"/>
</g>
<defs>
<linearGradient id="paint0_linear_114_253" x1="87.0002" y1="5.39442" x2="87.0002" y2="132.543" gradientUnits="userSpaceOnUse">
<stop stop-color="white" stop-opacity="0.5"/>
<stop offset="1" stop-color="white" stop-opacity="0.2"/>
</linearGradient>
<clipPath id="clip0_114_253">
<rect width="174" height="138" fill="white"/>
</clipPath>
</defs>
</svg>
