<svg width="367" height="46" viewBox="0 0 367 46" fill="none" xmlns="http://www.w3.org/2000/svg">
<path d="M356.678 25.0866C356.745 26.5565 357.948 27.6254 359.484 27.6254C360.653 27.6254 361.489 26.9907 361.489 26.0888C361.489 23.1491 352.135 24.2181 352.135 18.7396C352.135 15.8668 354.774 13.9961 358.749 13.9961C362.992 13.9961 366.032 16.0338 366.165 18.8733L360.954 19.9422C360.954 18.606 360.086 17.8711 358.616 17.8711C357.446 17.8711 356.812 18.4056 356.812 19.1405C356.812 22.0802 366.433 20.8776 366.433 26.356C366.433 29.4293 363.359 31.6341 359.083 31.6341C354.807 31.6341 351.467 29.563 351.2 26.2224L356.678 25.0866Z" fill="black"/>
<path d="M345.434 21.6123C345.434 19.8085 344.498 18.6059 343.095 18.6059C341.492 18.6059 340.356 20.1091 340.356 22.2804V31.1662H335.746V21.746C335.746 19.8419 334.811 18.6059 333.341 18.6059C331.671 18.6059 330.468 20.1425 330.468 22.2804V31.1662H325.792V14.4636H329.399L330.301 16.802C331.003 15.1985 332.84 14.0627 334.945 14.0627C337.016 14.0627 338.653 15.1651 339.554 17.0692C340.423 15.2319 342.427 14.0627 344.565 14.0627C347.806 14.0627 350.111 16.7686 350.111 20.6102V31.1662H345.434V21.6123Z" fill="black"/>
<path d="M316.035 31.5671C311.191 31.5671 307.684 27.8925 307.684 22.8149C307.684 17.7373 311.158 14.0627 315.968 14.0627C320.645 14.0627 324.052 17.7373 324.052 22.8149C324.052 23.2826 324.019 23.6167 323.985 23.8839H312.527C312.895 25.8882 314.298 27.2244 316.102 27.2244C317.471 27.2244 318.741 26.4227 319.108 25.2869L323.785 26.7568C322.716 29.5628 319.643 31.5671 316.035 31.5671ZM312.628 21.2115H319.175C318.841 19.608 317.538 18.4054 315.935 18.4054C314.331 18.4054 313.095 19.5412 312.628 21.2115Z" fill="black"/>
<path d="M296.04 18.6059V14.4636H297.109C298.044 14.4636 298.712 13.7287 298.712 12.7265V9.78687H303.122V14.4636H306.863V18.6059H303.122V24.8192C303.122 26.4227 304.057 27.0908 305.394 27.0908C305.728 27.0908 306.062 27.0574 306.596 26.8904L307.398 31.1662C306.73 31.3667 305.728 31.5671 304.124 31.5671C300.85 31.5671 298.445 29.2956 298.445 26.0886V18.6059H296.04Z" fill="black"/>
<path d="M285.755 25.0866C285.822 26.5565 287.024 27.6254 288.561 27.6254C289.73 27.6254 290.565 26.9907 290.565 26.0888C290.565 23.1491 281.212 24.2181 281.212 18.7396C281.212 15.8668 283.851 13.9961 287.826 13.9961C292.068 13.9961 295.108 16.0338 295.242 18.8733L290.031 19.9422C290.031 18.606 289.162 17.8711 287.692 17.8711C286.523 17.8711 285.888 18.4056 285.888 19.1405C285.888 22.0802 295.509 20.8776 295.509 26.356C295.509 29.4293 292.436 31.6341 288.16 31.6341C283.884 31.6341 280.544 29.563 280.276 26.2224L285.755 25.0866Z" fill="black"/>
<path d="M263.118 14.4636H268.329L271.87 25.1533L274.944 14.4636H280.088L273.073 33.5714C272.037 36.3775 270.2 38.0143 267.929 38.1146L265.724 33.9723C267.194 33.9723 268.63 33.0704 269.198 31.8344L269.732 30.6318L263.118 14.4636Z" fill="black"/>
<path d="M250.629 23.5162C250.762 25.6208 252.265 27.1574 254.771 27.1574C256.408 27.1574 257.978 26.4893 257.978 25.0195C257.978 20.8772 245.685 22.0798 245.685 15.1315C245.685 11.5906 248.825 9.05176 253.702 9.05176C258.546 9.05176 262.654 11.5572 262.922 14.9979L257.31 16.3341C257.176 14.597 255.773 13.3276 253.835 13.3276C252.199 13.3276 250.896 14.2296 250.896 15.4656C250.896 19.4074 263.323 18.2048 263.323 25.1531C263.323 28.9279 259.681 31.5669 254.504 31.5669C249.092 31.5669 245.016 28.6607 244.883 24.7188L250.629 23.5162Z" fill="black"/>
<path d="M234.221 22.5212C234.221 20.4835 233.052 19.047 231.348 19.047C229.444 19.047 228.008 20.7507 228.008 23.0557V31.6074H223.331V14.9048H226.939L227.941 17.5104C228.743 15.7399 230.881 14.5039 233.085 14.5039C236.526 14.5039 238.898 17.5438 238.898 21.7194V31.6074H234.221V22.5212Z" fill="black"/>
<path d="M212.359 38.5557C208.251 38.5557 204.81 36.0837 204.208 32.7432L209.152 31.4738C209.42 33.1775 210.856 34.4135 212.627 34.4135C214.631 34.4135 216.101 32.8768 216.101 30.8057V28.3671C214.965 29.7367 213.362 30.5384 211.491 30.5384C207.415 30.5384 204.476 27.2313 204.476 22.6548C204.476 17.9112 207.315 14.5039 211.224 14.5039C213.328 14.5039 215.099 15.4727 216.335 17.1429L217.17 14.9048H220.778V30.1376C220.778 35.0482 217.27 38.5557 212.359 38.5557ZM209.42 23.1893C209.42 25.5945 210.856 27.3315 212.827 27.3315C214.798 27.3315 216.234 25.5945 216.234 23.1893C216.234 20.7841 214.798 19.047 212.827 19.047C210.856 19.047 209.42 20.7841 209.42 23.1893Z" fill="black"/>
<path d="M197.79 14.9048H202.467V31.6075H197.79V14.9048ZM197.255 10.4953C197.255 8.79166 198.458 7.55566 200.128 7.55566C201.798 7.55566 203.001 8.79166 203.001 10.4953C203.001 12.199 201.798 13.435 200.128 13.435C198.458 13.435 197.255 12.199 197.255 10.4953Z" fill="black"/>
<path d="M186.034 25.5276C186.101 26.9974 187.304 28.0664 188.84 28.0664C190.009 28.0664 190.844 27.4317 190.844 26.5297C190.844 23.5901 181.491 24.659 181.491 19.1806C181.491 16.3077 184.13 14.437 188.105 14.437C192.348 14.437 195.388 16.4747 195.521 19.3142L190.31 20.3832C190.31 19.0469 189.441 18.312 187.972 18.312C186.802 18.312 186.168 18.8465 186.168 19.5814C186.168 22.5211 195.788 21.3185 195.788 26.797C195.788 29.8702 192.715 32.075 188.439 32.075C184.163 32.075 180.823 30.0039 180.556 26.6633L186.034 25.5276Z" fill="black"/>
<path d="M171.734 32.0083C166.89 32.0083 163.382 28.3337 163.382 23.2561C163.382 18.1785 166.856 14.5039 171.667 14.5039C176.344 14.5039 179.751 18.1785 179.751 23.2561C179.751 23.7238 179.718 24.0578 179.684 24.3251H168.226C168.594 26.3294 169.997 27.6656 171.8 27.6656C173.17 27.6656 174.439 26.8639 174.807 25.7281L179.484 27.1979C178.415 30.004 175.341 32.0083 171.734 32.0083ZM168.326 21.6526H174.874C174.54 20.0492 173.237 18.8466 171.633 18.8466C170.03 18.8466 168.794 19.9824 168.326 21.6526Z" fill="black"/>
<path d="M143.194 31.6075V9.89404H151.479C157.792 9.89404 162.302 14.4038 162.302 20.7508C162.302 27.031 157.893 31.6075 151.88 31.6075H143.194ZM148.138 27.0644H151.612C154.786 27.0644 157.091 24.3919 157.091 20.7174C157.091 17.0094 154.686 14.3704 151.345 14.3704H148.138V27.0644Z" fill="black"/>
<path d="M129.973 22.5212C129.973 20.4835 128.803 19.047 127.1 19.047C125.196 19.047 123.759 20.7507 123.759 23.0557V31.6074H119.083V14.9048H122.69L123.692 17.5104C124.494 15.7399 126.632 14.5039 128.837 14.5039C132.278 14.5039 134.649 17.5438 134.649 21.7194V31.6074H129.973V22.5212Z" fill="black"/>
<path d="M107.582 31.6074V14.9048H111.19L112.092 17.3099C112.927 15.5395 114.33 14.5039 116.134 14.5039C116.768 14.5039 117.336 14.6375 117.871 14.9048L117.069 19.9156C116.768 19.7819 116.234 19.7151 115.733 19.7151C113.695 19.7151 112.259 21.1182 112.259 23.1893V31.6074H107.582Z" fill="black"/>
<path d="M100.505 23.7238C100.505 23.7906 100.004 23.8574 99.3691 23.991L96.8303 24.5255C95.895 24.7259 95.3605 25.3272 95.3605 26.1289C95.3605 27.0309 96.0286 27.6656 97.2312 27.6656C98.9683 27.6656 100.505 26.2626 100.505 23.991V23.7238ZM90.4165 27.0643C90.4165 24.9264 92.0868 23.0223 94.4251 22.5212L99.9036 21.3854C100.304 21.3186 100.505 21.0513 100.505 20.7841C100.505 19.6149 99.5361 18.7798 98.1665 18.7798C96.8303 18.7798 95.7613 19.6817 95.6277 20.9177L91.0846 19.3143C91.8529 16.5082 94.7258 14.5039 97.9661 14.5039C102.142 14.5039 105.182 17.1429 105.182 20.7841V28.2669L105.248 31.6074H101.574L100.839 29.6699C99.77 31.1063 97.9995 32.0083 95.895 32.0083C92.7215 32.0083 90.4165 29.9371 90.4165 27.0643Z" fill="black"/>
<path d="M81.5945 32.0083C76.7507 32.0083 73.2432 28.3337 73.2432 23.2561C73.2432 18.1785 76.7173 14.5039 81.5277 14.5039C86.2044 14.5039 89.6117 18.1785 89.6117 23.2561C89.6117 23.7238 89.5783 24.0578 89.5449 24.3251H78.0869C78.4544 26.3294 79.8574 27.6656 81.6613 27.6656C83.0309 27.6656 84.3003 26.8639 84.6678 25.7281L89.3445 27.1979C88.2755 30.004 85.2023 32.0083 81.5945 32.0083ZM78.1871 21.6526H84.7346C84.4005 20.0492 83.0977 18.8466 81.4943 18.8466C79.8908 18.8466 78.6548 19.9824 78.1871 21.6526Z" fill="black"/>
<path d="M58.2744 9.89404H63.2184V26.8639H73.24V31.6075H58.2744V9.89404Z" fill="black"/>
<circle cx="16.6177" cy="4.37895" r="4.37895" fill="black"/>
<circle cx="28.8565" cy="16.1685" r="4.37895" fill="black"/>
<circle cx="16.6177" cy="40.6456" r="4.37895" fill="black"/>
<rect x="24.7017" y="0.224609" width="8.30878" height="8.30878" rx="2.30176" fill="black"/>
<rect x="12.4629" y="24.2527" width="8.30878" height="8.30878" rx="2.30176" fill="black"/>
<rect x="24.7017" y="36.4912" width="8.30878" height="8.30878" rx="2.30176" fill="black"/>
<rect x="0.224609" y="12.0142" width="8.30878" height="8.30878" rx="2.30176" fill="black"/>
<circle cx="4.37895" cy="28.407" r="4.37895" fill="black"/>
<circle cx="40.8702" cy="28.407" r="4.37895" fill="black"/>
<rect x="16.6177" y="10.2932" width="8.30878" height="8.30878" rx="2.30176" transform="rotate(45 16.6177 10.2932)" fill="black"/>
<path d="M26.8625 25.0105C27.7485 23.476 29.9633 23.476 30.8493 25.0105L32.9885 28.7158C33.8745 30.2503 32.767 32.1684 30.9952 32.1684H26.7167C24.9448 32.1684 23.8374 30.2503 24.7233 28.7158L26.8625 25.0105Z" fill="black"/>
<path d="M38.9328 13.0527C39.8188 11.5182 42.0337 11.5182 42.9196 13.0527L45.0588 16.758C45.9448 18.2925 44.8374 20.2106 43.0655 20.2106H38.787C37.0151 20.2106 35.9077 18.2925 36.7936 16.758L38.9328 13.0527Z" fill="black"/>
</svg>
