<svg width="176" height="46" viewBox="0 0 176 46" fill="none" xmlns="http://www.w3.org/2000/svg">
<path d="M129.371 35.3185C129.416 36.3009 130.22 37.0154 131.247 37.0154C132.028 37.0154 132.587 36.5911 132.587 35.9883C132.587 34.0235 126.335 34.738 126.335 31.0763C126.335 29.1561 128.099 27.9058 130.756 27.9058C133.591 27.9058 135.623 29.2677 135.712 31.1656L132.229 31.88C132.229 30.9869 131.649 30.4957 130.666 30.4957C129.885 30.4957 129.461 30.853 129.461 31.3442C129.461 33.309 135.891 32.5052 135.891 36.1669C135.891 38.221 133.837 39.6947 130.979 39.6947C128.121 39.6947 125.888 38.3104 125.71 36.0776L129.371 35.3185Z" fill="#111111"/>
<path d="M121.856 32.9964C121.856 31.7908 121.231 30.987 120.293 30.987C119.221 30.987 118.462 31.9917 118.462 33.443V39.3821H115.381V33.0858C115.381 31.8131 114.756 30.987 113.774 30.987C112.657 30.987 111.853 32.014 111.853 33.443V39.3821H108.728V28.2184H111.139L111.742 29.7813C112.211 28.7096 113.439 27.9504 114.845 27.9504C116.23 27.9504 117.324 28.6872 117.926 29.9599C118.507 28.7319 119.847 27.9504 121.276 27.9504C123.441 27.9504 124.982 29.759 124.982 32.3266V39.3821H121.856V32.9964Z" fill="#111111"/>
<path d="M102.206 39.65C98.9686 39.65 96.6243 37.194 96.6243 33.8002C96.6243 30.4065 98.9463 27.9504 102.161 27.9504C105.287 27.9504 107.565 30.4065 107.565 33.8002C107.565 34.1128 107.542 34.3361 107.52 34.5147H99.8618C100.107 35.8544 101.045 36.7475 102.251 36.7475C103.166 36.7475 104.015 36.2116 104.26 35.4525L107.386 36.4349C106.672 38.3104 104.617 39.65 102.206 39.65ZM99.9287 32.7285H104.305C104.082 31.6568 103.211 30.853 102.139 30.853C101.067 30.853 100.241 31.6121 99.9287 32.7285Z" fill="#111111"/>
<path d="M88.8422 30.987V28.2184H89.5566C90.1818 28.2184 90.6284 27.7272 90.6284 27.0573V25.0925H93.5756V28.2184H96.0763V30.987H93.5756V35.1399C93.5756 36.2116 94.2008 36.6582 95.0939 36.6582C95.3171 36.6582 95.5404 36.6358 95.8976 36.5242L96.4335 39.3821C95.9869 39.5161 95.3171 39.65 94.2454 39.65C92.0573 39.65 90.4497 38.1318 90.4497 35.9883V30.987H88.8422Z" fill="#111111"/>
<path d="M81.9675 35.3185C82.0121 36.3009 82.8159 37.0154 83.843 37.0154C84.6245 37.0154 85.1826 36.5911 85.1826 35.9883C85.1826 34.0235 78.931 34.738 78.931 31.0763C78.931 29.1561 80.6948 27.9058 83.3518 27.9058C86.1874 27.9058 88.2192 29.2677 88.3085 31.1656L84.8254 31.88C84.8254 30.9869 84.2449 30.4957 83.2625 30.4957C82.481 30.4957 82.0568 30.853 82.0568 31.3442C82.0568 33.309 88.4871 32.5052 88.4871 36.1669C88.4871 38.221 86.433 39.6947 83.5751 39.6947C80.7172 39.6947 78.4844 38.3104 78.3058 36.0776L81.9675 35.3185Z" fill="#111111"/>
<path d="M66.8378 28.2185H70.3209L72.6876 35.3633L74.7417 28.2185H78.1801L73.4913 40.9898C72.7992 42.8653 71.5712 43.9594 70.0529 44.0263L68.5793 41.2577C69.5617 41.2577 70.5218 40.6549 70.9014 39.8288L71.2586 39.025L66.8378 28.2185Z" fill="#111111"/>
<path d="M58.4897 34.2691C58.579 35.6757 59.5838 36.7028 61.2583 36.7028C62.3524 36.7028 63.4018 36.2563 63.4018 35.2738C63.4018 32.5052 55.1853 33.309 55.1853 28.6649C55.1853 26.2982 57.2841 24.6013 60.5439 24.6013C63.7813 24.6013 66.5276 26.2759 66.7062 28.5756L62.9552 29.4687C62.8659 28.3077 61.9282 27.4592 60.6332 27.4592C59.5391 27.4592 58.6684 28.0621 58.6684 28.8882C58.6684 31.5228 66.9742 30.719 66.9742 35.3632C66.9742 37.8862 64.5405 39.65 61.0797 39.65C57.4627 39.65 54.7387 37.7075 54.6494 35.0729L58.4897 34.2691Z" fill="#111111"/>
<path d="M172.874 14.507C172.874 13.1451 172.093 12.185 170.954 12.185C169.681 12.185 168.721 13.3237 168.721 14.8643V20.5801H165.595V9.41637H168.007L168.677 11.1579C169.213 9.97455 170.641 9.14844 172.115 9.14844C174.415 9.14844 176 11.1802 176 13.9712V20.5801H172.874V14.507Z" fill="#111111"/>
<path d="M158.262 25.2242C155.516 25.2242 153.216 23.572 152.814 21.3392L156.119 20.4908C156.297 21.6295 157.257 22.4556 158.441 22.4556C159.78 22.4556 160.763 21.4285 160.763 20.0442V18.4143C160.004 19.3298 158.932 19.8656 157.681 19.8656C154.958 19.8656 152.993 17.6552 152.993 14.5963C152.993 11.4258 154.891 9.14844 157.503 9.14844C158.909 9.14844 160.093 9.79593 160.919 10.9123L161.477 9.41637H163.889V19.5977C163.889 22.8798 161.544 25.2242 158.262 25.2242ZM156.297 14.9536C156.297 16.5612 157.257 17.7222 158.575 17.7222C159.892 17.7222 160.852 16.5612 160.852 14.9536C160.852 13.346 159.892 12.185 158.575 12.185C157.257 12.185 156.297 13.346 156.297 14.9536Z" fill="#111111"/>
<path d="M148.524 9.41643H151.65V20.5802H148.524V9.41643ZM148.167 6.46921C148.167 5.33051 148.971 4.50439 150.087 4.50439C151.203 4.50439 152.007 5.33051 152.007 6.46921C152.007 7.60791 151.203 8.43403 150.087 8.43403C148.971 8.43403 148.167 7.60791 148.167 6.46921Z" fill="#111111"/>
<path d="M140.667 16.5165C140.711 17.4989 141.515 18.2134 142.542 18.2134C143.324 18.2134 143.882 17.7891 143.882 17.1863C143.882 15.2215 137.63 15.936 137.63 12.2743C137.63 10.3541 139.394 9.10376 142.051 9.10376C144.887 9.10376 146.919 10.4657 147.008 12.3636L143.525 13.078C143.525 12.1849 142.944 11.6937 141.962 11.6937C141.18 11.6937 140.756 12.051 140.756 12.5422C140.756 14.507 147.186 13.7032 147.186 17.3649C147.186 19.419 145.132 20.8927 142.274 20.8927C139.416 20.8927 137.184 19.5084 137.005 17.2756L140.667 16.5165Z" fill="#111111"/>
<path d="M131.109 20.848C127.871 20.848 125.527 18.392 125.527 14.9982C125.527 11.6045 127.849 9.14844 131.064 9.14844C134.19 9.14844 136.467 11.6045 136.467 14.9982C136.467 15.3108 136.445 15.5341 136.423 15.7127H128.764C129.01 17.0524 129.948 17.9455 131.153 17.9455C132.069 17.9455 132.917 17.4096 133.163 16.6505L136.289 17.6329C135.574 19.5084 133.52 20.848 131.109 20.848ZM128.831 13.9265H133.207C132.984 12.8548 132.113 12.051 131.042 12.051C129.97 12.051 129.144 12.8101 128.831 13.9265Z" fill="#111111"/>
<path d="M112.033 20.5802V6.06738H117.571C121.791 6.06738 124.805 9.08159 124.805 13.3238C124.805 17.5214 121.858 20.5802 117.839 20.5802H112.033ZM115.338 17.5437H117.66C119.781 17.5437 121.322 15.7575 121.322 13.3015C121.322 10.8231 119.714 9.05926 117.481 9.05926H115.338V17.5437Z" fill="#111111"/>
<path d="M103.196 14.507C103.196 13.1451 102.415 12.185 101.276 12.185C100.003 12.185 99.0432 13.3237 99.0432 14.8643V20.5801H95.9174V9.41637H98.3287L98.9985 11.1579C99.5344 9.97455 100.963 9.14844 102.437 9.14844C104.737 9.14844 106.322 11.1802 106.322 13.9712V20.5801H103.196V14.507Z" fill="#111111"/>
<path d="M88.2307 20.5801V9.41637H90.6421L91.2449 11.0239C91.8031 9.84059 92.7409 9.14844 93.9465 9.14844C94.3708 9.14844 94.7503 9.23775 95.1076 9.41637L94.5717 12.7655C94.3708 12.6762 94.0135 12.6315 93.6786 12.6315C92.3166 12.6315 91.3566 13.5693 91.3566 14.9536V20.5801H88.2307Z" fill="#111111"/>
<path d="M83.5006 15.3108C83.5006 15.3555 83.1657 15.4001 82.7414 15.4894L81.0446 15.8467C80.4194 15.9806 80.0622 16.3825 80.0622 16.9184C80.0622 17.5212 80.5087 17.9455 81.3125 17.9455C82.4735 17.9455 83.5006 17.0077 83.5006 15.4894V15.3108ZM76.7577 17.5436C76.7577 16.1146 77.8741 14.8419 79.437 14.507L83.0987 13.7479C83.3666 13.7032 83.5006 13.5246 83.5006 13.346C83.5006 12.5645 82.8531 12.0064 81.9377 12.0064C81.0446 12.0064 80.3301 12.6092 80.2408 13.4353L77.2042 12.3636C77.7178 10.4881 79.6379 9.14844 81.8037 9.14844C84.5946 9.14844 86.6264 10.9123 86.6264 13.346V18.3473L86.6711 20.5801H84.2151L83.7239 19.2851C83.0094 20.2452 81.826 20.848 80.4194 20.848C78.2983 20.848 76.7577 19.4637 76.7577 17.5436Z" fill="#111111"/>
<path d="M70.8613 20.848C67.6238 20.848 65.2794 18.392 65.2794 14.9982C65.2794 11.6045 67.6015 9.14844 70.8166 9.14844C73.9425 9.14844 76.2199 11.6045 76.2199 14.9982C76.2199 15.3108 76.1975 15.5341 76.1752 15.7127H68.5169C68.7625 17.0524 69.7003 17.9455 70.9059 17.9455C71.8214 17.9455 72.6698 17.4096 72.9154 16.6505L76.0413 17.6329C75.3268 19.5084 73.2726 20.848 70.8613 20.848ZM68.5839 13.9265H72.9601C72.7368 12.8548 71.866 12.051 70.7943 12.051C69.7226 12.051 68.8965 12.8101 68.5839 13.9265Z" fill="#111111"/>
<path d="M55.2745 6.06738H58.579V17.4097H65.2772V20.5802H55.2745V6.06738Z" fill="#111111"/>
<circle cx="16.6176" cy="4.37895" r="4.37895" fill="#111111"/>
<circle cx="28.8562" cy="16.1685" r="4.37895" fill="#111111"/>
<circle cx="16.6176" cy="40.6456" r="4.37895" fill="#111111"/>
<rect x="24.7018" y="0.224609" width="8.30878" height="8.30878" rx="2.30176" fill="#111111"/>
<rect x="12.4631" y="24.2527" width="8.30878" height="8.30878" rx="2.30176" fill="#111111"/>
<rect x="24.7018" y="36.4912" width="8.30878" height="8.30878" rx="2.30176" fill="#111111"/>
<rect x="0.224487" y="12.0142" width="8.30878" height="8.30878" rx="2.30176" fill="#111111"/>
<circle cx="4.37895" cy="28.407" r="4.37895" fill="#111111"/>
<circle cx="40.8702" cy="28.407" r="4.37895" fill="#111111"/>
<rect x="16.6176" y="10.2932" width="8.30878" height="8.30878" rx="2.30176" transform="rotate(45 16.6176 10.2932)" fill="#111111"/>
<path d="M26.8628 25.0105C27.7487 23.476 29.9636 23.476 30.8495 25.0105L32.9888 28.7158C33.8747 30.2503 32.7673 32.1684 30.9954 32.1684H26.7169C24.945 32.1684 23.8376 30.2503 24.7235 28.7158L26.8628 25.0105Z" fill="#111111"/>
<path d="M38.933 13.0527C39.8189 11.5182 42.0338 11.5182 42.9197 13.0527L45.059 16.758C45.9449 18.2925 44.8375 20.2106 43.0656 20.2106H38.7871C37.0152 20.2106 35.9078 18.2925 36.7937 16.758L38.933 13.0527Z" fill="#111111"/>
</svg>
