<svg width="159" height="48" viewBox="0 0 159 48" fill="none" xmlns="http://www.w3.org/2000/svg">
<path d="M120.525 33.0273C120.562 33.838 121.225 34.4275 122.073 34.4275C122.718 34.4275 123.178 34.0775 123.178 33.58C123.178 31.9588 118.02 32.5484 118.02 29.527C118.02 27.9426 119.475 26.9109 121.668 26.9109C124.007 26.9109 125.684 28.0347 125.758 29.6007L122.884 30.1902C122.884 29.4533 122.405 29.048 121.594 29.048C120.949 29.048 120.599 29.3427 120.599 29.748C120.599 31.3693 125.905 30.706 125.905 33.7274C125.905 35.4224 124.21 36.6383 121.852 36.6383C119.494 36.6383 117.651 35.496 117.504 33.6537L120.525 33.0273Z" fill="#111111"/>
<path d="M114.324 31.1114C114.324 30.1165 113.808 29.4533 113.035 29.4533C112.15 29.4533 111.524 30.2823 111.524 31.4798V36.3804H108.982V31.1851C108.982 30.1349 108.466 29.4533 107.655 29.4533C106.734 29.4533 106.071 30.3008 106.071 31.4798V36.3804H103.491V27.1688H105.481L105.979 28.4584C106.365 27.5741 107.379 26.9478 108.539 26.9478C109.682 26.9478 110.584 27.5557 111.082 28.6058C111.561 27.5926 112.666 26.9478 113.845 26.9478C115.632 26.9478 116.903 28.44 116.903 30.5587V36.3804H114.324V31.1114Z" fill="#111111"/>
<path d="M98.1104 36.6014C95.4391 36.6014 93.5046 34.5749 93.5046 31.7746C93.5046 28.9743 95.4206 26.9478 98.0736 26.9478C100.653 26.9478 102.532 28.9743 102.532 31.7746C102.532 32.0325 102.514 32.2168 102.495 32.3641H96.176C96.3786 33.4695 97.1524 34.2064 98.1473 34.2064C98.9026 34.2064 99.6027 33.7643 99.8053 33.1379L102.385 33.9485C101.795 35.4961 100.1 36.6014 98.1104 36.6014ZM96.2313 30.8903H99.8422C99.6579 30.006 98.9394 29.3428 98.0551 29.3428C97.1708 29.3428 96.4892 29.9691 96.2313 30.8903Z" fill="#111111"/>
<path d="M87.0834 29.4533V27.1688H87.6729C88.1888 27.1688 88.5572 26.7635 88.5572 26.2108V24.5896H90.9891V27.1688H93.0525V29.4533H90.9891V32.88C90.9891 33.7643 91.5049 34.1328 92.2418 34.1328C92.4261 34.1328 92.6103 34.1143 92.9051 34.0222L93.3472 36.3804C92.9788 36.4909 92.4261 36.6014 91.5418 36.6014C89.7363 36.6014 88.4098 35.3487 88.4098 33.5801V29.4533H87.0834Z" fill="#111111"/>
<path d="M81.4108 33.0273C81.4476 33.838 82.1109 34.4275 82.9583 34.4275C83.6031 34.4275 84.0637 34.0775 84.0637 33.58C84.0637 31.9588 78.9052 32.5484 78.9052 29.527C78.9052 27.9426 80.3607 26.9109 82.553 26.9109C84.8928 26.9109 86.5693 28.0347 86.6429 29.6007L83.7689 30.1902C83.7689 29.4533 83.2899 29.048 82.4793 29.048C81.8345 29.048 81.4845 29.3427 81.4845 29.748C81.4845 31.3693 86.7903 30.706 86.7903 33.7274C86.7903 35.4224 85.0954 36.6383 82.7373 36.6383C80.3791 36.6383 78.5368 35.496 78.3894 33.6537L81.4108 33.0273Z" fill="#111111"/>
<path d="M68.9269 27.1689H71.8009L73.7538 33.0643L75.4487 27.1689H78.2859L74.417 37.7069C73.8459 39.2545 72.8326 40.1572 71.5799 40.2125L70.3639 37.928C71.1746 37.928 71.9667 37.4306 72.2799 36.7489L72.5747 36.0857L68.9269 27.1689Z" fill="#111111"/>
<path d="M62.0386 32.1613C62.1123 33.3219 62.9414 34.1694 64.3231 34.1694C65.2258 34.1694 66.0917 33.8009 66.0917 32.9903C66.0917 30.7059 59.312 31.3691 59.312 27.5371C59.312 25.5842 61.0438 24.1841 63.7336 24.1841C66.4049 24.1841 68.671 25.5658 68.8183 27.4634L65.7233 28.2003C65.6496 27.2423 64.8758 26.5422 63.8073 26.5422C62.9045 26.5422 62.186 27.0397 62.186 27.7213C62.186 29.8952 69.0394 29.232 69.0394 33.064C69.0394 35.1458 67.0313 36.6012 64.1757 36.6012C61.1912 36.6012 58.9436 34.9984 58.8699 32.8245L62.0386 32.1613Z" fill="#111111"/>
<path d="M156.421 15.8551C156.421 14.7313 155.776 13.9391 154.836 13.9391C153.786 13.9391 152.994 14.8787 152.994 16.1499V20.8662H150.415V11.6547H152.405L152.957 13.0917C153.399 12.1152 154.579 11.4336 155.794 11.4336C157.692 11.4336 159 13.1101 159 15.413V20.8662H156.421V15.8551Z" fill="#111111"/>
<path d="M144.364 24.6982C142.098 24.6982 140.2 23.3349 139.869 21.4926L142.595 20.7925C142.743 21.7321 143.535 22.4137 144.511 22.4137C145.617 22.4137 146.427 21.5663 146.427 20.4241V19.0792C145.801 19.8345 144.917 20.2767 143.885 20.2767C141.637 20.2767 140.016 18.4528 140.016 15.9288C140.016 13.3127 141.582 11.4336 143.738 11.4336C144.898 11.4336 145.875 11.9679 146.556 12.889L147.017 11.6547H149.007V20.0556C149.007 22.7638 147.072 24.6982 144.364 24.6982ZM142.743 16.2236C142.743 17.5501 143.535 18.5081 144.622 18.5081C145.709 18.5081 146.501 17.5501 146.501 16.2236C146.501 14.8971 145.709 13.9391 144.622 13.9391C143.535 13.9391 142.743 14.8971 142.743 16.2236Z" fill="#111111"/>
<path d="M136.329 11.6546H138.908V20.8662H136.329V11.6546ZM136.034 9.22279C136.034 8.28322 136.697 7.60156 137.618 7.60156C138.54 7.60156 139.203 8.28322 139.203 9.22279C139.203 10.1624 138.54 10.844 137.618 10.844C136.697 10.844 136.034 10.1624 136.034 9.22279Z" fill="#111111"/>
<path d="M129.846 17.5134C129.883 18.3241 130.546 18.9136 131.393 18.9136C132.038 18.9136 132.499 18.5636 132.499 18.0661C132.499 16.4449 127.34 17.0344 127.34 14.013C127.34 12.4287 128.796 11.397 130.988 11.397C133.328 11.397 135.004 12.5208 135.078 14.0867L132.204 14.6763C132.204 13.9394 131.725 13.534 130.914 13.534C130.269 13.534 129.919 13.8288 129.919 14.2341C129.919 15.8554 135.225 15.1921 135.225 18.2135C135.225 19.9084 133.53 21.1244 131.172 21.1244C128.814 21.1244 126.972 19.9821 126.824 18.1398L129.846 17.5134Z" fill="#111111"/>
<path d="M121.959 21.0873C119.287 21.0873 117.353 19.0607 117.353 16.2604C117.353 13.4601 119.269 11.4336 121.922 11.4336C124.501 11.4336 126.38 13.4601 126.38 16.2604C126.38 16.5184 126.362 16.7026 126.343 16.85H120.024C120.227 17.9554 121.001 18.6923 121.996 18.6923C122.751 18.6923 123.451 18.2501 123.654 17.6237L126.233 18.4344C125.643 19.9819 123.948 21.0873 121.959 21.0873ZM120.08 15.3761H123.691C123.506 14.4918 122.788 13.8286 121.904 13.8286C121.019 13.8286 120.338 14.455 120.08 15.3761Z" fill="#111111"/>
<path d="M106.219 20.8666V8.8916H110.788C114.27 8.8916 116.757 11.3787 116.757 14.8791C116.757 18.3426 114.325 20.8666 111.009 20.8666H106.219ZM108.946 18.3611H110.862C112.612 18.3611 113.883 16.8872 113.883 14.8607C113.883 12.8157 112.557 11.3603 110.714 11.3603H108.946V18.3611Z" fill="#111111"/>
<path d="M98.9273 15.8551C98.9273 14.7313 98.2825 13.9391 97.3429 13.9391C96.2928 13.9391 95.5006 14.8787 95.5006 16.1499V20.8662H92.9214V11.6547H94.9111L95.4638 13.0917C95.9059 12.1152 97.085 11.4336 98.3009 11.4336C100.199 11.4336 101.507 13.1101 101.507 15.413V20.8662H98.9273V15.8551Z" fill="#111111"/>
<path d="M86.5789 20.8662V11.6547H88.5686L89.066 12.9811C89.5265 12.0047 90.3003 11.4336 91.2952 11.4336C91.6452 11.4336 91.9584 11.5073 92.2532 11.6547L91.811 14.4181C91.6452 14.3444 91.3504 14.3076 91.0741 14.3076C89.9503 14.3076 89.1581 15.0814 89.1581 16.2236V20.8662H86.5789Z" fill="#111111"/>
<path d="M82.6761 16.5184C82.6761 16.5552 82.3997 16.5921 82.0497 16.6657L80.6495 16.9605C80.1337 17.0711 79.8389 17.4027 79.8389 17.8448C79.8389 18.3422 80.2074 18.6923 80.8706 18.6923C81.8286 18.6923 82.6761 17.9185 82.6761 16.6657V16.5184ZM77.1123 18.3607C77.1123 17.1816 78.0335 16.1315 79.3231 15.8551L82.3445 15.2287C82.5655 15.1919 82.6761 15.0445 82.6761 14.8971C82.6761 14.2523 82.1418 13.7917 81.3865 13.7917C80.6495 13.7917 80.06 14.2892 79.9863 14.9708L77.4808 14.0865C77.9045 12.539 79.4889 11.4336 81.2759 11.4336C83.5788 11.4336 85.2553 12.889 85.2553 14.8971V19.0239L85.2922 20.8662H83.2656L82.8603 19.7977C82.2708 20.5899 81.2943 21.0873 80.1337 21.0873C78.3835 21.0873 77.1123 19.9451 77.1123 18.3607Z" fill="#111111"/>
<path d="M72.2468 21.0873C69.5755 21.0873 67.6411 19.0607 67.6411 16.2604C67.6411 13.4601 69.5571 11.4336 72.21 11.4336C74.7892 11.4336 76.6684 13.4601 76.6684 16.2604C76.6684 16.5184 76.6499 16.7026 76.6315 16.85H70.3124C70.5151 17.9554 71.2888 18.6923 72.2837 18.6923C73.039 18.6923 73.7391 18.2501 73.9417 17.6237L76.521 18.4344C75.9314 19.9819 74.2365 21.0873 72.2468 21.0873ZM70.3677 15.3761H73.9786C73.7944 14.4918 73.0759 13.8286 72.1916 13.8286C71.3072 13.8286 70.6256 14.455 70.3677 15.3761Z" fill="#111111"/>
<path d="M59.3857 8.8916H62.1123V18.2505H67.6392V20.8666H59.3857V8.8916Z" fill="#111111"/>
<circle cx="17.4304" cy="4.59314" r="4.59314" fill="#111111"/>
<circle cx="30.2676" cy="16.9598" r="4.59314" fill="#111111"/>
<circle cx="17.4304" cy="42.6339" r="4.59314" fill="#111111"/>
<rect x="25.91" y="0.235596" width="8.7152" height="8.7152" rx="2.41435" fill="#111111"/>
<rect x="13.0727" y="25.4392" width="8.7152" height="8.7152" rx="2.41435" fill="#111111"/>
<rect x="25.91" y="38.2764" width="8.7152" height="8.7152" rx="2.41435" fill="#111111"/>
<rect x="0.235413" y="12.6021" width="8.7152" height="8.7152" rx="2.41435" fill="#111111"/>
<circle cx="4.59314" cy="29.7965" r="4.59314" fill="#111111"/>
<circle cx="42.8692" cy="29.7965" r="4.59314" fill="#111111"/>
<rect x="17.4305" y="10.7964" width="8.7152" height="8.7152" rx="2.41435" transform="rotate(45 17.4305 10.7964)" fill="#111111"/>
<path d="M28.1767 26.2338C29.106 24.6243 31.4292 24.6243 32.3585 26.2338L34.6024 30.1203C35.5316 31.7299 34.37 33.7418 32.5115 33.7418H28.0237C26.1652 33.7418 25.0036 31.7299 25.9328 30.1203L28.1767 26.2338Z" fill="#111111"/>
<path d="M40.8372 13.6913C41.7665 12.0818 44.0897 12.0818 45.0189 13.6913L47.2628 17.5778C48.1921 19.1874 47.0305 21.1994 45.1719 21.1994H40.6842C38.8256 21.1994 37.664 19.1874 38.5933 17.5778L40.8372 13.6913Z" fill="#111111"/>
</svg>
